<svg width="3836" height="2708" xmlns="http://www.w3.org/2000/svg" xmlns:xlink="http://www.w3.org/1999/xlink" xml:space="preserve" overflow="hidden"><g transform="translate(-1632 -705)"><path d="M4543.5 1223.5C4566.42 1223.5 4585 1226.6 4585 1230.42L4585 1494.58C4585 1498.4 4603.58 1501.5 4626.5 1501.5 4603.58 1501.5 4585 1504.6 4585 1508.42L4585 1772.58C4585 1776.4 4566.42 1779.5 4543.5 1779.5" stroke="#000000" stroke-width="20.625" stroke-miterlimit="8" fill="none" fill-rule="evenodd"/><path d="M4543.5 2035.5C4566.42 2035.5 4585 2038.6 4585 2042.42L4585 2306.58C4585 2310.4 4603.58 2313.5 4626.5 2313.5 4603.58 2313.5 4585 2316.6 4585 2320.42L4585 2584.58C4585 2588.4 4566.42 2591.5 4543.5 2591.5" stroke="#000000" stroke-width="20.625" stroke-miterlimit="8" fill="none" fill-rule="evenodd"/><path d="M4543.5 2847.5C4566.42 2847.5 4585 2850.6 4585 2854.42L4585 3118.08C4585 3121.9 4603.57 3125 4626.49 3125 4603.57 3125 4585 3128.1 4585 3131.92L4585 3395.58C4585 3399.4 4566.42 3402.5 4543.5 3402.5" stroke="#000000" stroke-width="20.625" stroke-miterlimit="8" fill="none" fill-rule="evenodd"/><text font-family="Aptos,Aptos_MSFontService,sans-serif" font-weight="400" font-size="128" transform="matrix(1 0 0 1 4658.8 1536)">Hardware</text><text font-family="Aptos,Aptos_MSFontService,sans-serif" font-weight="400" font-size="128" transform="matrix(1 0 0 1 4658.8 2347)">Microscope</text><text font-family="Aptos,Aptos_MSFontService,sans-serif" font-weight="400" font-size="128" transform="matrix(1 0 0 1 4658.8 3076)">Additional </text><text font-family="Aptos,Aptos_MSFontService,sans-serif" font-weight="400" font-size="128" transform="matrix(1 0 0 1 4658.8 3230)">Components</text><rect x="1686.5" y="1223.5" width="1233" height="556" stroke="#000000" stroke-width="6.875" stroke-miterlimit="8" fill="#FFFFFF"/><text fill="#0070C0" font-family="Aptos,Aptos_MSFontService,sans-serif" font-weight="400" font-size="147" transform="matrix(1 0 0 1 1969.04 1372)">DigiScan 2</text><text fill="#0070C0" font-family="Aptos,Aptos_MSFontService,sans-serif" font-weight="400" font-size="147" transform="matrix(1 0 0 1 1877.24 1724)">GIF Quantum</text><rect x="1686.5" y="2035.5" width="1233" height="556" stroke="#000000" stroke-width="6.875" stroke-miterlimit="8" fill="#FFFFFF"/><text fill="#0070C0" font-family="Aptos,Aptos_MSFontService,sans-serif" font-weight="400" font-size="147" transform="matrix(1 0 0 1 1843.91 2360)">JEOL ACE200F</text><rect x="1686.5" y="2847.5" width="1233" height="555" stroke="#000000" stroke-width="6.875" stroke-miterlimit="8" fill="#FFFFFF"/><text fill="#0070C0" font-family="Aptos,Aptos_MSFontService,sans-serif" font-weight="400" font-size="147" transform="matrix(1 0 0 1 2104.33 3172)">PyJEM</text><text fill="#0070C0" font-family="Aptos,Aptos_MSFontService,sans-serif" font-weight="400" font-size="128" transform="matrix(1 0 0 1 1841.75 862)">Automated EELS </text><text fill="#0070C0" font-family="Aptos,Aptos_MSFontService,sans-serif" font-weight="400" font-size="128" transform="matrix(1 0 0 1 1907.11 1016)">Quantification</text><path d="M1686.5 1155.5C1686.5 1132.58 1689.6 1114 1693.42 1114L2296.08 1114C2299.9 1114 2303 1095.42 2303 1072.5 2303 1095.42 2306.1 1114 2309.92 1114L2912.58 1114C2916.4 1114 2919.5 1132.58 2919.5 1155.5" stroke="#000000" stroke-width="20.625" stroke-miterlimit="8" fill="none" fill-rule="evenodd"/><path d="M2313.81 1831.06 2313.81 1984.4 2293.19 1984.4 2293.19 1831.06ZM2272.56 1841.38 2303.5 1779.5 2334.44 1841.38ZM2334.44 1974.08 2303.5 2035.96 2272.56 1974.08Z"/><path d="M2313.81 2643.06 2313.81 2796.4 2293.19 2796.4 2293.19 2643.06ZM2272.56 2653.38 2303.5 2591.5 2334.44 2653.38ZM2334.44 2786.08 2303.5 2847.96 2272.56 2786.08Z"/><rect x="3242.5" y="1223.5" width="1233" height="556" stroke="#000000" stroke-width="6.875" stroke-miterlimit="8" fill="#FFFFFF"/><text fill="#FF0000" font-family="Aptos,Aptos_MSFontService,sans-serif" font-weight="400" font-size="147" transform="matrix(1 0 0 1 3524.38 1372)">DigiScan 3</text><text fill="#FF0000" font-family="Aptos,Aptos_MSFontService,sans-serif" font-weight="400" font-size="147" transform="matrix(1 0 0 1 3376.43 1724)">GIF Continuum</text><rect x="3242.5" y="2035.5" width="1233" height="556" stroke="#000000" stroke-width="6.875" stroke-miterlimit="8" fill="#FFFFFF"/><text fill="#FF0000" font-family="Aptos,Aptos_MSFontService,sans-serif" font-weight="400" font-size="147" transform="matrix(1 0 0 1 3336.19 2360)">JEOL ARM200CF</text><rect x="3242.5" y="2847.5" width="1233" height="555" stroke="#000000" stroke-width="6.875" stroke-miterlimit="8" fill="#FFFFFF"/><text fill="#FF0000" font-family="Aptos,Aptos_MSFontService,sans-serif" font-weight="400" font-size="147" transform="matrix(1 0 0 1 3290.1 3084)">High Performance </text><text fill="#FF0000" font-family="Aptos,Aptos_MSFontService,sans-serif" font-weight="400" font-size="147" transform="matrix(1 0 0 1 3535.77 3260)">Computer</text><text fill="#FF0000" font-family="Aptos,Aptos_MSFontService,sans-serif" font-weight="400" font-size="128" transform="matrix(1 0 0 1 3434.28 862)">In</text><text fill="#FF0000" font-family="Aptos,Aptos_MSFontService,sans-serif" font-weight="400" font-size="128" transform="matrix(1 0 0 1 3537.98 862)">-</text><text fill="#FF0000" font-family="Aptos,Aptos_MSFontService,sans-serif" font-weight="400" font-size="128" transform="matrix(1 0 0 1 3581.84 862)">Situ Catalyst </text><text fill="#FF0000" font-family="Aptos,Aptos_MSFontService,sans-serif" font-weight="400" font-size="128" transform="matrix(1 0 0 1 3224.5 1016)">Nanoparticle Evolution</text><path d="M3248.5 1155.5C3248.5 1132.58 3251.6 1114 3255.42 1114L3858.08 1114C3861.9 1114 3865 1095.42 3865 1072.5 3865 1095.42 3868.1 1114 3871.92 1114L4474.58 1114C4478.4 1114 4481.5 1132.58 4481.5 1155.5" stroke="#000000" stroke-width="20.625" stroke-miterlimit="8" fill="none" fill-rule="evenodd"/><path d="M3868.81 2643.06 3868.81 2796.4 3848.19 2796.4 3848.19 2643.06ZM3827.56 2653.38 3858.5 2591.5 3889.44 2653.38ZM3889.44 2786.08 3858.5 2847.96 3827.56 2786.08Z"/><path d="M3868.81 1831.06 3868.81 1984.4 3848.19 1984.4 3848.19 1831.06ZM3827.56 1841.38 3858.5 1779.5 3889.44 1841.38ZM3889.44 1974.08 3858.5 2035.96 3827.56 1974.08Z"/></g></svg>